# xmcd
#
# Track frame offsets:
#	150
#	18582
#	34907
#	48467
#	63400
#	81572
#	96780
#	113817
#	131112
#	149055
#	171605
#	190037
#	206362
#	219925
#	234855
#	253027
#	268237
#	285272
#	302567
#
# Disc length: 4334 seconds
#
# Revision: 1
# Processed by: cddbd v1.5.2PL0 Copyright (c) Steve Scherf et al.
# Submitted via: audiograbber 1.83.01
#
DISCID=1d10ec13
DTITLE=Various Artist - CHM0301
DYEAR=2003
DGENRE=
TTITLE0=Tim McGraw - Red Rag Top Vocal
TTITLE1=Gary Allan - Man to Man Vocal
TTITLE2=Brad Martin - Rub Me The Right Way vocal
TTITLE3=Trace Adkins - Chrome vocal
TTITLE4=Andy Griggs with Martina McBride - Practice Life vocal
TTITLE5=Mark Wills - Nineteen Something vocal
TTITLE6=Neal McCoy - The Luckiest Man In The World vocal
TTITLE7=Jameson Clark - You Da Man vocal
TTITLE8=Anthony Smith - John J Blanchard vocal
TTITLE9=Kid Rock w/ Sheryl Crow - Picture vocal
TTITLE10=Tim McGraw - Red Rag Top
TTITLE11=Gary Allan - Man to Man
TTITLE12=Brad Martin - Rub Me The Right Way
TTITLE13=Trace Adkins - Chrome
TTITLE14=Andy Griggs w/ Martina McBride - Practice Life
TTITLE15=Mark Wills - Nineteen Something
TTITLE16=Neal McCoy - The Luckiest Man In The World
TTITLE17=Anthony Smith - John J Blanchard
TTITLE18=Kid Rock w/ Sheryl Crow - Picture
EXTD=
EXTT0=
EXTT1=
EXTT2=
EXTT3=
EXTT4=
EXTT5=
EXTT6=
EXTT7=
EXTT8=
EXTT9=
EXTT10=
EXTT11=
EXTT12=
EXTT13=
EXTT14=
EXTT15=
EXTT16=
EXTT17=
EXTT18=
PLAYORDER=
